HIERARCHY
ROOT Hips
{
	OFFSET 0.000000 0.000000 0.000000
	CHANNELS 6 Xposition Yposition Zposition Zrotation Yrotation Xrotation 
	JOINT LHipJoint
	{
		OFFSET 0.000000 0.000000 0.000000
		CHANNELS 3 Zrotation Yrotation Xrotation
		JOINT LeftUpLeg
		{
			OFFSET 1.363060 -1.794630 0.839290
			CHANNELS 3 Zrotation Yrotation Xrotation
			JOINT LeftLeg
			{
				OFFSET 2.448110 -6.726130 0.000000
				CHANNELS 3 Zrotation Yrotation Xrotation
				JOINT LeftFoot
				{
					OFFSET 2.562200 -7.039590 0.000000
					CHANNELS 3 Zrotation Yrotation Xrotation
					JOINT LeftToeBase
					{
						OFFSET 0.157640 -0.433110 2.322550
						CHANNELS 3 Zrotation Yrotation Xrotation
						End Site
						{
							OFFSET 0.000000 0.000000 0.000000
						}
					}
				}
			}
		}
	}
	JOINT RHipJoint
	{
		OFFSET 0.000000 0.000000 0.000000
		CHANNELS 3 Zrotation Yrotation Xrotation
		JOINT RightUpLeg
		{
			OFFSET -1.305520 -1.794630 0.839290
			CHANNELS 3 Zrotation Yrotation Xrotation
			JOINT RightLeg
			{
				OFFSET -2.542530 -6.985550 0.000000
				CHANNELS 3 Zrotation Yrotation Xrotation
				JOINT RightFoot
				{
					OFFSET -2.568260 -7.056230 0.000000
					CHANNELS 3 Zrotation Yrotation Xrotation
					JOINT RightToeBase
					{
						OFFSET -0.164730 -0.452590 2.363150
						CHANNELS 3 Zrotation Yrotation Xrotation
						End Site
						{
							OFFSET 0.000000 0.000000 0.000000
						}
					}
				}
			}
		}
	}
	JOINT LowerBack
	{
		OFFSET 0.000000 0.000000 0.000000
		CHANNELS 3 Zrotation Yrotation Xrotation
		JOINT Spine
		{
			OFFSET 0.028270 2.035590 -0.193380
			CHANNELS 3 Zrotation Yrotation Xrotation
			JOINT Spine1
			{
				OFFSET 0.056720 2.048850 -0.042750
				CHANNELS 3 Zrotation Yrotation Xrotation
				JOINT Neck
				{
					OFFSET 0.000000 0.000000 0.000000
					CHANNELS 3 Zrotation Yrotation Xrotation
					JOINT Neck1
					{
						OFFSET -0.054170 1.746240 0.172020
						CHANNELS 3 Zrotation Yrotation Xrotation
						JOINT Head
						{
							OFFSET 0.104070 1.761360 -0.123970
							CHANNELS 3 Zrotation Yrotation Xrotation
							End Site
							{
								OFFSET 0.000000 0.000000 0.000000
							}
						}
					}
				}
				JOINT LeftShoulder
				{
					OFFSET 0.000000 0.000000 0.000000
					CHANNELS 3 Zrotation Yrotation Xrotation
					JOINT LeftArm
					{
						OFFSET 3.362410 1.200890 -0.311210
						CHANNELS 3 Zrotation Yrotation Xrotation
						JOINT LeftForeArm
						{
							OFFSET 4.983000 -0.000000 -0.000000
							CHANNELS 3 Zrotation Yrotation Xrotation
							JOINT LeftHand
							{
								OFFSET 3.483560 -0.000000 -0.000000
								CHANNELS 3 Zrotation Yrotation Xrotation
								JOINT LeftFingerBase
								{
									OFFSET 0.000000 0.000000 0.000000
									CHANNELS 3 Zrotation Yrotation Xrotation
									JOINT LeftHandIndex1
									{
										OFFSET 0.715260 -0.000000 -0.000000
										CHANNELS 3 Zrotation Yrotation Xrotation
										End Site
										{
											OFFSET 0.000000 0.000000 0.000000
										}
									}
								}
								JOINT LThumb
								{
									OFFSET 0.000000 0.000000 0.000000
									CHANNELS 3 Zrotation Yrotation Xrotation
									End Site
									{
										OFFSET 0.000000 0.000000 0.000000
									}
								}
							}
						}
					}
				}
				JOINT RightShoulder
				{
					OFFSET 0.000000 0.000000 0.000000
					CHANNELS 3 Zrotation Yrotation Xrotation
					JOINT RightArm
					{
						OFFSET -3.136600 1.374050 -0.404650
						CHANNELS 3 Zrotation Yrotation Xrotation
						JOINT RightForeArm
						{
							OFFSET -5.241900 -0.000000 -0.000000
							CHANNELS 3 Zrotation Yrotation Xrotation
							JOINT RightHand
							{
								OFFSET -3.444170 -0.000000 -0.000000
								CHANNELS 3 Zrotation Yrotation Xrotation
								JOINT RightFingerBase
								{
									OFFSET 0.000000 0.000000 0.000000
									CHANNELS 3 Zrotation Yrotation Xrotation
									JOINT RightHandIndex1
									{
										OFFSET -0.622530 -0.000000 -0.000000
										CHANNELS 3 Zrotation Yrotation Xrotation
										End Site
										{
											OFFSET 0.000000 0.000000 0.000000
										}
									}
								}
								JOINT RThumb
								{
									OFFSET 0.000000 0.000000 0.000000
									CHANNELS 3 Zrotation Yrotation Xrotation
									End Site
									{
										OFFSET 0.000000 0.000000 0.000000
									}
								}
							}
						}
					}
				}
			}
		}
	}
}
MOTION
Frames: 10
Frame Time: 0.008333
-4.972936 14.984914 -0.274280 -171.510961 -86.851095 -119.717612 -8.564617 -1.322449 2.923543 -7.137394 -7.073913 -104.982883 -3.380003 4.925019 47.213230 3.057377 7.696585 -15.278855 -0.175400 -0.000000 -43.006800 8.548491 0.627353 5.351020 2.050209 12.666263 -105.705882 2.363593 -5.124752 49.705300 -2.539117 -4.529635 -15.177708 -0.134800 -0.000001 -57.674600 -0.977818 -0.457797 -2.267067 -0.967814 -0.481676 -4.340038 -4.397420 -0.489597 -3.530202 4.471311 0.618226 -3.711305 -2.577544 -0.191502 0.185441 0.000000 0.000000 0.000000 5.031134 5.306009 1.921064 -68.264722 -20.878565 2.306263 -177.990375 -60.097215 179.859423 12.807687 -7.215024 -0.948581 -0.480261 0.941278 0.000000 0.000000 0.000000 0.000000 0.000000 0.000000 0.000000 -0.565783 4.930722 0.287900 70.427100 15.935568 -2.525236 -179.667045 62.716286 179.825030 -15.860634 20.117441 -3.036103 0.266321 -1.055653 -0.000000 0.000000 0.000000 0.000000 0.000000 0.000000 0.000000 
-4.959610 14.976163 -0.304442 -172.009927 -86.620097 -119.309318 -8.553867 -1.333266 2.854557 -7.201712 -6.873450 -105.008198 -3.366655 4.985412 47.460492 3.066095 7.755804 -15.292628 -0.183101 0.000000 -43.132800 8.525225 0.671769 5.341918 1.921364 12.823167 -105.784241 2.297259 -5.121950 50.008341 -2.542895 -4.522700 -15.290928 -0.114800 0.000000 -57.555000 -0.922399 -0.464557 -2.181535 -0.956285 -0.489976 -4.329231 -4.406134 -0.498808 -3.572832 4.530064 0.624806 -3.767315 -2.579596 -0.190836 0.167121 0.000000 0.000000 0.000000 5.018830 5.223779 1.961078 -68.008197 -20.572780 1.852526 -178.026392 -60.315307 179.858962 12.885424 -7.129781 -0.943099 -0.478914 0.933449 -0.000000 0.000000 0.000000 0.000000 0.000000 0.000000 0.000000 -0.467770 4.981757 0.302640 70.565253 15.824608 -2.491550 -179.660269 62.899353 179.825230 -15.814314 20.109617 -3.025225 0.263308 -1.053453 -0.000000 0.000000 0.000000 0.000000 0.000000 0.000000 0.000000 
-4.945961 14.967125 -0.335141 -172.566969 -86.401538 -118.850487 -8.542635 -1.344979 2.785100 -7.262586 -6.680722 -105.028892 -3.349578 5.044885 47.713605 3.078155 7.831884 -15.298214 -0.189400 -0.000000 -43.274900 8.501105 0.718794 5.325881 1.801162 12.967536 -105.858620 2.230746 -5.122537 50.331510 -2.546570 -4.514081 -15.415291 -0.092800 0.000000 -57.429400 -0.863343 -0.471165 -2.087785 -0.943844 -0.498088 -4.316823 -4.414402 -0.507864 -3.617578 4.593510 0.634015 -3.823360 -2.579732 -0.190032 0.148800 0.000000 0.000000 0.000000 4.993158 5.134134 2.001926 -67.749250 -20.266688 1.406779 -178.067669 -60.585566 179.858434 12.973619 -7.042809 -0.938022 -0.477308 0.925050 -0.000000 0.000000 0.000000 0.000000 0.000000 0.000000 0.000000 -0.363765 5.037696 0.318388 70.716885 15.692335 -2.452696 -179.651650 63.116534 179.825369 -15.772468 20.110287 -3.016448 0.259994 -1.050957 -0.000000 0.000000 0.000000 0.000000 0.000000 0.000000 0.000000 
-4.931959 14.957868 -0.366574 -173.204594 -86.193281 -118.321140 -8.529820 -1.357120 2.713815 -7.325617 -6.495577 -105.040382 -3.329204 5.103470 47.972791 3.094258 7.927653 -15.296637 -0.194700 -0.000000 -43.428299 8.476956 0.769145 5.303057 1.687034 13.097704 -105.926820 2.163506 -5.126387 50.675874 -2.549843 -4.502609 -15.552022 -0.068600 0.000000 -57.289800 -0.804430 -0.480141 -1.984881 -0.931499 -0.508378 -4.301761 -4.423111 -0.519122 -3.662043 4.668018 0.644699 -3.881264 -2.578791 -0.189118 0.129872 0.000000 0.000000 0.000000 4.954912 5.047150 2.044057 -67.484014 -19.965843 0.971309 -178.114155 -60.918600 179.857864 13.071997 -6.954555 -0.933250 -0.475419 0.916031 -0.000000 0.000000 0.000000 0.000000 0.000000 0.000000 0.000000 -0.241582 5.095276 0.334234 70.875232 15.550361 -2.399889 -179.641778 63.373266 179.825397 -15.746944 20.114871 -3.011275 0.256730 -1.047968 -0.000000 0.000000 0.000000 0.000000 0.000000 0.000000 0.000000 
-4.917757 14.948360 -0.398501 -173.859690 -85.997541 -117.785507 -8.516833 -1.370887 2.641979 -7.385112 -6.314581 -105.042766 -3.304760 5.161060 48.239539 3.114496 8.042786 -15.290453 -0.199400 0.000000 -43.586400 8.451548 0.821000 5.273233 1.585952 13.217104 -105.984126 2.096615 -5.133209 51.038830 -2.552816 -4.488597 -15.700825 -0.042200 0.000000 -57.145600 -0.743716 -0.489221 -1.874553 -0.919154 -0.518705 -4.284157 -4.433081 -0.530431 -3.704748 4.760218 0.645264 -3.941493 -2.578455 -0.188213 0.110291 0.000000 0.000000 0.000000 4.907425 4.953477 2.085676 -67.219971 -19.663948 0.546351 -178.167003 -61.319085 179.857346 13.173249 -6.866542 -0.928382 -0.472861 0.906359 -0.000000 0.000000 0.000000 0.000000 0.000000 0.000000 0.000000 -0.084204 5.142125 0.352317 71.022648 15.408253 -2.328498 -179.632965 63.675565 179.825313 -15.750627 20.118915 -3.011603 0.254035 -1.044279 -0.000000 0.000000 0.000000 0.000000 0.000000 0.000000 0.000000 
-4.903369 14.938776 -0.430847 -174.510848 -85.814058 -117.268684 -8.504195 -1.386991 2.569566 -7.438954 -6.134835 -105.033486 -3.276078 5.217735 48.515256 3.138113 8.173851 -15.282470 -0.204201 0.000000 -43.743200 8.423929 0.873963 5.236422 1.499084 13.328174 -106.026453 2.029870 -5.142321 51.419806 -2.556054 -4.473798 -15.862823 -0.013400 -0.000000 -56.990500 -0.680999 -0.499935 -1.757289 -0.906923 -0.530659 -4.263551 -4.445602 -0.543391 -3.743759 4.876011 0.632464 -4.005374 -2.580777 -0.187441 0.089675 0.000000 0.000000 0.000000 4.852289 4.856695 2.126890 -66.957664 -19.357722 0.130439 -178.226195 -61.792885 179.856924 13.275182 -6.779791 -0.923419 -0.469531 0.896013 -0.000000 0.000000 0.000000 0.000000 0.000000 0.000000 0.000000 0.125391 5.172806 0.372761 71.147209 15.279498 -2.228870 -179.626477 64.032422 179.825101 -15.793377 20.111890 -3.017734 0.252264 -1.039538 -0.000000 0.000000 0.000000 0.000000 0.000000 0.000000 0.000000 
-4.888899 14.929134 -0.463554 -175.124792 -85.643126 -116.805427 -8.492839 -1.406643 2.496631 -7.482739 -5.951491 -105.010051 -3.243167 5.273524 48.800510 3.163597 8.314374 -15.275815 -0.209600 -0.000000 -43.894200 8.392870 0.927418 5.192628 1.427539 13.434997 -106.048209 1.962844 -5.152451 51.817026 -2.560742 -4.462256 -16.038702 0.017600 -0.000000 -56.823500 -0.615710 -0.513832 -1.633452 -0.894894 -0.545870 -4.239460 -4.462088 -0.559652 -3.777198 5.021162 0.603149 -4.074509 -2.588239 -0.186954 0.067503 0.000000 0.000000 0.000000 4.793845 4.760784 2.167603 -66.701216 -19.042609 -0.278259 -178.291707 -62.343475 179.856650 13.374239 -6.694029 -0.918161 -0.465285 0.884961 -0.000000 0.000000 0.000000 0.000000 0.000000 0.000000 0.000000 0.405798 5.181959 0.395894 71.237304 15.176490 -2.092290 -179.623677 64.452757 179.824792 -15.882035 20.083938 -3.029468 0.251698 -1.033414 -0.000000 0.000000 0.000000 0.000000 0.000000 0.000000 0.000000 
-4.874371 14.919586 -0.496534 -175.667117 -85.485636 -116.434206 -8.483812 -1.431513 2.423336 -7.509339 -5.759715 -104.970809 -3.205544 5.328545 49.097515 3.189102 8.456540 -15.274027 -0.216600 -0.000000 -44.036200 8.356521 0.980824 5.141544 1.372610 13.543050 -106.044134 1.894703 -5.162228 52.229862 -2.568637 -4.460278 -16.228824 0.051100 -0.000000 -56.644501 -0.546053 -0.532366 -1.503156 -0.882838 -0.565910 -4.211565 -4.484057 -0.580813 -3.803894 5.200532 0.555144 -4.150361 -2.603250 -0.186904 0.043336 0.000000 0.000000 0.000000 4.736886 4.667746 2.207976 -66.455610 -18.711152 -0.683124 -178.363905 -62.976149 179.856549 13.468172 -6.609586 -0.912305 -0.459977 0.873168 0.000000 0.000000 0.000000 0.000000 0.000000 0.000000 0.000000 0.773770 5.165642 0.422148 71.282980 15.110729 -1.911766 -179.625771 64.944748 179.824440 -16.018096 20.025745 -3.045706 0.252466 -1.025623 0.000000 0.000000 0.000000 0.000000 0.000000 0.000000 0.000000 
-4.859982 14.910089 -0.529590 -176.096165 -85.342552 -116.196526 -8.478700 -1.463377 2.349971 -7.510370 -5.553915 -104.913966 -3.162734 5.382819 49.407972 3.212561 8.591900 -15.279813 -0.225600 0.000000 -44.169700 8.312980 1.033629 5.082956 1.335010 13.658087 -106.008135 1.824633 -5.169873 52.656593 -2.581817 -4.475270 -16.433700 0.087300 0.000000 -56.454000 -0.469226 -0.556838 -1.366470 -0.870272 -0.592236 -4.179617 -4.512824 -0.608372 -3.822980 5.417144 0.487504 -4.234440 -2.628052 -0.187430 0.016659 0.000000 0.000000 0.000000 4.686445 4.579376 2.248199 -66.227379 -18.354415 -1.087477 -178.443049 -63.694516 179.856644 13.556076 -6.526492 -0.905953 -0.453511 0.860605 0.000000 0.000000 0.000000 0.000000 0.000000 0.000000 0.000000 1.243388 5.121438 0.452096 71.276835 15.090396 -1.682689 -179.633740 65.516413 179.824140 -16.197808 19.931009 -3.064448 0.254550 -1.015956 0.000000 0.000000 0.000000 0.000000 0.000000 0.000000 0.000000 
-4.845641 14.900914 -0.562460 -176.360620 -85.215649 -116.150417 -8.479496 -1.504758 2.276817 -7.473948 -5.327611 -104.837356 -3.113361 5.436373 49.734749 3.232327 8.713871 -15.295764 -0.237400 0.000000 -44.297600 8.258937 1.085398 5.015238 1.318669 13.787073 -105.931706 1.751927 -5.173732 53.096672 -2.602464 -4.515217 -16.654244 0.126501 0.000000 -56.244500 -0.379128 -0.587445 -1.222024 -0.855815 -0.625269 -4.143167 -4.549545 -0.642763 -3.834067 5.671201 0.398154 -4.328571 -2.664230 -0.188626 -0.013036 0.000000 0.000000 0.000000 4.646494 4.496722 2.288240 -66.024553 -17.964821 -1.493970 -178.529663 -64.502517 179.856897 13.640582 -6.444272 -0.899204 -0.445852 0.847247 -0.000000 0.000000 0.000000 0.000000 0.000000 0.000000 0.000000 1.821346 5.046692 0.486264 71.215624 15.122114 -1.402585 -179.647997 66.174122 179.823997 -16.411703 19.795012 -3.082995 0.257745 -1.004307 0.000000 0.000000 0.000000 0.000000 0.000000 0.000000 0.000000 
